<?xml version="1.0" standalone="no"?>
<!DOCTYPE svg PUBLIC "-//W3C//DTD SVG 20010904//EN"
 "http://www.w3.org/TR/2001/REC-SVG-20010904/DTD/svg10.dtd">
<svg version="1.0" xmlns="http://www.w3.org/2000/svg"
 width="920.000000pt" height="832.000000pt" viewBox="0 0 920.000000 832.000000"
 preserveAspectRatio="xMidYMid meet">

<g transform="translate(0.000000,832.000000) scale(0.100000,-0.100000)"
fill="#000000" stroke="none">
<path d="M483 8293 c-9 -3 -13 -27 -13 -71 1 -124 69 -280 249 -568 158 -252
327 -487 441 -613 410 -456 793 -772 1235 -1022 l143 -81 -44 -71 c-51 -81
-72 -144 -104 -301 -20 -102 -21 -126 -15 -335 6 -186 4 -244 -9 -326 -16 -97
-75 -366 -121 -553 -36 -147 -23 -332 34 -482 27 -69 125 -207 229 -320 l80
-86 -9 -125 c-20 -277 -77 -443 -272 -789 -64 -114 -232 -379 -299 -474 -29
-41 -79 -160 -110 -266 -11 -37 -24 -130 -30 -215 -6 -82 -13 -152 -14 -154
-2 -2 -25 14 -51 36 -164 137 -296 180 -333 108 -8 -16 -16 -32 -17 -34 -1 -2
-16 2 -32 9 -41 17 -82 -4 -93 -47 -6 -22 -17 -34 -38 -41 -40 -14 -47 -48
-26 -135 29 -120 85 -214 239 -406 141 -174 394 -457 518 -577 193 -186 282
-236 425 -238 73 -1 84 2 123 28 23 16 49 42 59 58 11 19 22 26 32 22 73 -30
270 -28 418 4 45 11 82 16 83 13 0 -3 0 -30 -1 -59 -2 -66 7 -70 101 -47 l71
18 34 -37 c18 -20 40 -36 49 -36 9 0 38 21 65 46 l49 46 40 -32 c21 -18 47
-30 58 -28 10 2 31 27 46 56 16 28 32 52 36 52 4 0 18 -11 31 -25 13 -14 31
-25 41 -25 18 0 54 39 64 69 4 12 14 16 42 13 57 -4 68 8 65 72 l-2 55 37 10
c49 13 325 18 430 7 81 -8 81 -8 61 -28 -13 -13 -18 -30 -16 -51 3 -28 10 -35
55 -57 40 -19 55 -33 67 -63 21 -50 52 -64 113 -50 46 11 48 11 78 -23 37 -40
47 -41 100 -14 l40 21 35 -41 c40 -46 56 -49 94 -19 25 20 28 20 46 4 26 -24
72 -16 87 15 7 14 13 43 13 65 0 27 8 50 23 69 l24 29 39 -27 c21 -14 74 -40
116 -56 64 -25 92 -30 163 -30 85 0 86 0 103 -30 36 -63 158 -81 282 -42 72
24 220 111 344 204 156 117 586 569 743 782 104 140 152 288 103 318 -12 8
-20 24 -20 38 0 42 -20 58 -80 64 -30 2 -72 8 -92 11 -31 6 -51 0 -120 -33
-46 -22 -110 -60 -143 -84 -33 -24 -65 -47 -71 -51 -8 -5 -10 11 -7 56 7 95
-12 273 -37 347 -35 101 -99 231 -198 400 l-90 155 92 31 c193 66 389 165 394
200 2 12 -44 75 -128 178 -71 87 -130 162 -130 165 0 4 96 49 213 100 448 197
907 413 907 429 0 8 -55 71 -122 141 -68 70 -232 254 -366 409 -134 155 -262
302 -286 327 -24 24 -62 66 -84 93 l-41 49 217 63 c119 34 323 93 452 130 129
37 399 109 600 159 201 51 380 97 398 102 39 13 54 40 76 139 10 41 48 206 86
365 84 356 93 402 125 640 14 105 42 303 61 441 38 268 40 350 12 368 -53 33
-489 -87 -1093 -301 -438 -155 -517 -189 -1246 -529 -228 -107 -420 -194 -425
-194 -6 0 -21 19 -34 43 -12 23 -39 64 -58 92 -22 31 -30 51 -23 53 6 2 121
59 254 126 198 99 276 145 427 250 579 405 824 631 1069 991 144 211 351 587
351 637 0 38 -104 53 -275 39 -292 -24 -589 -119 -1000 -321 -240 -118 -325
-170 -515 -319 -291 -228 -381 -315 -724 -694 -98 -108 -180 -197 -181 -197
-1 0 -49 22 -106 49 -286 135 -526 181 -934 181 -442 -1 -666 -39 -950 -162
-111 -49 -226 -107 -249 -127 -11 -10 -20 -12 -23 -5 -12 35 -138 248 -208
354 -271 406 -751 853 -1195 1112 -348 204 -734 358 -995 398 -38 6 -81 12
-95 14 -14 3 -31 2 -37 -1z m857 -317 c392 -197 681 -407 1000 -726 254 -253
400 -440 588 -750 38 -63 77 -116 86 -118 9 -2 28 5 43 16 49 35 358 171 446
196 47 14 156 37 243 53 152 27 172 28 474 28 200 -1 348 -5 405 -13 183 -26
396 -92 557 -173 43 -22 83 -39 91 -39 7 0 80 73 162 162 240 261 336 357 350
352 7 -3 91 54 186 127 96 73 203 156 239 183 120 92 333 226 460 290 148 75
527 232 537 222 9 -9 -53 -430 -82 -551 -29 -123 -127 -436 -159 -508 -21 -49
-37 -64 -177 -169 -278 -208 -426 -302 -685 -437 -137 -72 -252 -131 -256
-131 -4 0 -22 20 -40 45 -28 37 -58 58 -58 40 0 -3 41 -66 90 -141 181 -273
197 -338 209 -869 l8 -320 38 -125 c38 -126 57 -201 70 -275 l7 -40 -24 23
c-41 38 -134 66 -219 66 -71 1 -82 -2 -172 -47 -274 -136 -416 -437 -312 -664
54 -120 162 -191 304 -200 52 -3 91 0 125 11 l49 15 -34 -37 c-18 -20 -72 -77
-119 -126 -150 -156 -404 -303 -722 -416 -133 -48 -176 -70 -134 -70 8 0 88
25 178 56 306 105 547 241 704 396 l91 90 8 -78 c22 -250 145 -645 290 -934
32 -63 99 -187 150 -275 116 -201 154 -277 195 -390 31 -85 33 -99 37 -255 2
-91 0 -170 -4 -175 -4 -6 -60 -50 -123 -97 -117 -88 -239 -202 -228 -214 4 -3
68 44 144 105 75 60 155 123 178 138 22 15 83 59 136 97 141 102 274 160 294
128 21 -34 -107 -228 -221 -336 -29 -27 -53 -54 -53 -58 0 -45 130 88 259 264
8 10 22 42 31 71 17 51 18 52 56 52 38 0 39 -1 42 -38 2 -26 -4 -51 -21 -82
-31 -55 -135 -188 -238 -305 -75 -85 -91 -110 -70 -110 25 0 296 331 334 408
23 46 33 52 42 23 13 -42 -24 -127 -101 -231 -172 -234 -627 -714 -780 -822
-120 -85 -220 -143 -309 -179 -70 -28 -87 -31 -145 -26 -83 7 -91 11 -112 48
-24 41 -23 47 13 151 30 88 31 122 4 84 -14 -18 -47 -113 -59 -168 -6 -27 -8
-28 -75 -28 -72 0 -127 15 -244 69 l-68 31 70 92 c145 193 350 559 461 823 23
55 51 119 62 142 74 158 174 552 143 561 -5 2 -22 -55 -36 -125 -27 -130 -87
-324 -132 -423 -13 -30 -43 -99 -66 -154 -136 -319 -360 -702 -549 -935 -28
-35 -36 -55 -40 -97 -6 -70 -23 -85 -63 -54 l-31 22 -29 -21 c-29 -22 -59 -28
-59 -12 0 5 -13 23 -29 40 l-30 32 -40 -21 c-53 -26 -65 -25 -91 7 -20 26 -27
28 -93 28 l-72 0 -20 40 c-15 27 -36 47 -70 65 -27 14 -51 31 -53 38 -2 7 9
25 25 40 60 57 66 149 24 347 -12 55 -27 145 -33 200 -14 130 -4 497 17 635
48 314 134 679 209 886 29 80 30 84 17 84 -5 0 -14 -12 -19 -27 -6 -16 -31
-82 -56 -148 -75 -193 -172 -633 -196 -881 -25 -266 -6 -682 38 -809 16 -48
24 -206 11 -219 -3 -3 -43 -1 -90 4 -109 13 -271 12 -383 0 -49 -6 -90 -9 -91
-8 -1 2 13 95 31 208 43 268 60 552 45 757 -28 377 -35 435 -86 693 -30 153
-103 381 -124 388 -10 3 -12 0 -7 -14 11 -29 65 -234 92 -353 31 -136 59 -330
80 -551 22 -234 15 -598 -16 -780 -31 -189 -51 -386 -44 -442 l7 -49 -46 2
c-26 2 -48 1 -50 -2 -2 -2 -14 -21 -26 -41 -25 -42 -33 -45 -51 -22 -40 47
-72 39 -106 -27 -13 -27 -29 -49 -35 -49 -6 0 -27 13 -46 30 -18 16 -39 30
-46 30 -7 0 -29 -16 -48 -36 -53 -56 -67 -60 -91 -29 -36 46 -77 50 -178 20
-14 -4 -15 5 -13 57 l4 63 -66 50 c-170 130 -440 548 -579 896 -43 107 -106
343 -106 397 0 12 -4 22 -10 22 -17 0 -11 -120 9 -205 64 -264 215 -575 414
-855 92 -129 180 -231 231 -269 25 -19 44 -37 41 -39 -29 -29 -372 -55 -438
-33 l-37 13 -1 71 c-1 83 -19 173 -34 167 -11 -5 -11 -8 0 -116 10 -91 -3
-131 -60 -183 -49 -46 -81 -51 -186 -31 -77 15 -126 42 -215 118 -116 98 -454
453 -565 593 -24 30 -80 100 -125 155 -44 56 -98 129 -118 163 -53 87 -79 195
-60 245 11 28 22 18 39 -35 10 -28 44 -90 76 -138 65 -98 186 -234 200 -225
13 8 0 28 -91 133 -53 61 -97 125 -126 182 -46 92 -54 141 -30 174 12 17 18
18 55 7 33 -10 41 -17 41 -36 0 -13 13 -48 28 -77 69 -131 264 -371 285 -350
6 6 -9 31 -43 69 -118 134 -241 326 -242 380 -2 55 10 72 51 72 76 0 238 -111
476 -328 104 -94 135 -115 135 -94 0 9 -186 184 -234 219 -28 21 -29 27 -27
80 5 112 32 284 57 365 40 128 82 210 194 378 177 266 324 536 393 721 40 107
72 264 83 410 l7 97 121 -91 c66 -49 153 -110 191 -135 127 -82 480 -272 505
-272 26 0 5 20 -52 50 -310 164 -473 266 -650 408 l-107 86 59 17 c160 43 299
203 330 377 27 148 -36 317 -165 448 -63 64 -116 97 -194 124 -102 34 -187 26
-303 -30 -32 -15 -58 -24 -58 -20 0 15 60 302 65 309 11 19 44 257 50 367 4
67 2 179 -4 256 l-11 138 30 121 c53 211 97 294 235 444 84 92 94 105 75 105
-6 0 -52 -40 -101 -90 l-90 -90 -102 62 c-172 103 -406 262 -524 356 -146 116
-370 312 -455 399 l-67 68 -81 254 c-44 139 -89 287 -100 329 -40 153 -80 434
-80 564 l0 78 27 -11 c15 -6 93 -43 173 -83z m7390 -1243 c0 -45 -36 -319
-105 -793 -36 -253 -204 -1013 -229 -1038 -7 -8 -197 -60 -422 -117 -225 -57
-512 -134 -639 -170 -126 -37 -322 -94 -434 -126 -112 -33 -207 -62 -212 -65
-25 -15 -4 -53 79 -138 48 -50 193 -215 322 -366 129 -151 292 -334 362 -406
l127 -130 -52 -26 c-29 -14 -248 -114 -487 -221 -239 -108 -460 -210 -490
-226 -30 -17 -65 -31 -77 -31 -36 0 -36 -17 2 -58 32 -36 49 -92 26 -92 -4 0
-48 27 -97 60 -138 93 -148 82 -79 -83 5 -13 -11 -6 -55 22 -98 63 -114 51
-60 -46 17 -29 30 -55 30 -59 0 -3 -14 -3 -31 1 -24 6 -36 2 -55 -16 -21 -20
-26 -21 -34 -9 -22 35 -156 440 -148 445 151 93 541 327 561 336 15 7 27 20
27 30 0 27 -134 116 -392 263 l-48 27 39 78 c58 113 75 186 75 316 0 138 -32
317 -84 479 -60 185 -62 202 -61 424 2 322 -18 510 -73 670 l-25 73 52 24 c29
12 201 91 382 175 678 313 831 377 1275 537 240 86 489 166 685 222 108 31
308 79 333 80 8 1 12 -15 12 -46z m-2306 -3256 c64 -43 85 -62 75 -68 -8 -4
-131 -79 -274 -167 -215 -132 -261 -157 -266 -143 -9 23 -36 192 -43 268 l-6
62 66 78 c35 43 79 99 97 124 l32 46 115 -70 c63 -39 155 -97 204 -130z"/>
<path d="M3025 5287 c-127 -33 -207 -95 -253 -195 -34 -74 -41 -184 -18 -264
28 -96 113 -193 204 -236 48 -22 64 -24 145 -20 115 5 182 35 255 111 84 89
97 123 97 252 0 101 -2 114 -28 163 -38 72 -95 132 -157 166 -61 33 -167 43
-245 23z m229 -101 c93 -39 113 -167 36 -241 -37 -36 -119 -46 -168 -21 -69
36 -96 116 -64 189 33 74 117 106 196 73z"/>
<path d="M5209 5286 c-171 -46 -288 -218 -258 -381 22 -121 117 -253 217 -302
48 -23 70 -28 137 -28 160 0 262 61 327 193 31 62 33 74 33 167 0 95 -2 103
-34 163 -40 73 -95 125 -179 170 -51 27 -70 32 -128 31 -38 0 -90 -6 -115 -13z
m90 -113 c86 -64 76 -197 -20 -245 -45 -24 -93 -23 -139 3 -56 32 -77 76 -71
156 1 29 48 82 86 99 39 18 110 12 144 -13z"/>
<path d="M4168 4679 c-23 -13 -23 -42 0 -62 27 -25 133 -23 155 1 24 27 21 51
-9 62 -33 13 -124 12 -146 -1z"/>
<path d="M4162 4235 c-34 -23 -99 -57 -145 -75 -144 -58 -308 -44 -361 32 -21
30 -31 16 -14 -19 8 -17 34 -39 68 -56 52 -27 61 -28 155 -24 87 3 110 8 183
39 45 20 105 53 133 73 47 33 53 35 85 25 18 -6 37 -16 40 -22 4 -6 59 -36
123 -67 107 -51 122 -56 198 -59 71 -4 88 -1 141 23 60 27 94 55 105 88 9 25
-1 21 -44 -18 -49 -44 -133 -69 -209 -62 -41 3 -91 21 -191 69 -73 35 -140 72
-148 81 -21 26 -50 19 -119 -28z"/>
<path d="M401 91 c-24 -43 -7 -91 31 -91 25 0 38 30 29 70 -8 42 -43 54 -60
21z m47 -37 c2 -22 -2 -33 -13 -38 -18 -7 -35 27 -27 57 8 29 37 16 40 -19z"/>
<path d="M680 101 c0 -6 5 -13 10 -16 6 -3 10 1 10 9 0 9 -4 16 -10 16 -5 0
-10 -4 -10 -9z"/>
<path d="M603 63 c-15 -6 -18 -63 -3 -63 6 0 10 11 10 25 0 16 6 25 15 25 9 0
15 -9 15 -25 0 -14 5 -25 10 -25 16 0 12 37 -6 54 -16 17 -21 18 -41 9z"/>
<path d="M518 52 c-33 -3 -38 -7 -38 -28 0 -13 4 -24 9 -24 5 0 8 7 7 16 0 9
5 19 12 21 7 3 12 -4 12 -16 0 -12 5 -21 10 -21 6 0 10 9 10 20 0 11 5 20 10
20 6 0 10 -9 10 -20 0 -11 5 -20 10 -20 14 0 12 36 -2 46 -7 5 -30 8 -50 6z"/>
<path d="M682 38 c2 -13 11 -24 20 -26 14 -3 15 0 5 22 -15 32 -30 34 -25 4z"/>
</g>
</svg>
